<svg width="628.8650146484375px" height="178.4px" xmlns="http://www.w3.org/2000/svg" viewBox="-64.43250732421876 -14.200000000000003 628.8650146484375 178.4" style="background: rgba(0, 0, 0, 0);" preserveAspectRatio="xMidYMid"><defs><filter id="editing-extrusion" x="-100%" y="-100%" width="300%" height="300%"><feFlood result="color1" flood-color="#444444"></feFlood><feConvolveMatrix order="8,8" divisor="1" kernelMatrix="1 0 0 0 0 0 0 0 0 1 0 0 0 0 0 0 0 0 1 0 0 0 0 0 0 0 0 1 0 0 0 0 0 0 0 0 1 0 0 0 0 0 0 0 0 1 0 0 0 0 0 0 0 0 1 0 0 0 0 0 0 0 0 1" in="SourceAlpha" result="extrude"></feConvolveMatrix><feComposite in="color1" in2="extrude" result="comp-extrude" operator="in"></feComposite><feOffset dx="4" dy="4" in="comp-extrude" result="offset-extrude"></feOffset><feMerge><feMergeNode in="offset-extrude"></feMergeNode><feMergeNode in="SourceGraphic"></feMergeNode></feMerge></filter></defs><g filter="url(#editing-extrusion)"><g transform="translate(26.815018892288208, 107.77999877929688)"><path d="M14.13-18.50L32.34-9.03L32.34-9.03Q32.49-8.58 32.52-7.99L32.52-7.99L32.52-7.99Q32.56-7.40 32.56-6.88L32.56-6.88L32.56-6.88Q32.56-5.55 32.26-4.37L32.26-4.37L32.26-4.37Q31.97-3.18 31.30-2.29L31.30-2.29L31.30-2.29Q30.64-1.41 29.56-0.85L29.56-0.85L29.56-0.85Q28.49-0.30 26.86-0.30L26.86-0.30L26.86-0.30Q25.31-0.30 23.79-0.96L23.79-0.96L23.79-0.96Q22.27-1.63 20.05-2.89L20.05-2.89L4.14-12.06L4.14-12.06Q2.22-14.58 2.22-18.72L2.22-18.72L2.22-18.72Q2.22-21.83 3.11-23.53L3.11-23.53L3.11-23.53Q4.00-25.23 5.70-26.20L5.70-26.20L26.05-38.04L26.05-38.04Q29.67-37.07 30.97-35.41L30.97-35.41L30.97-35.41Q32.26-33.74 32.26-31.82L32.26-31.82L32.26-31.82Q32.26-29.23 30.97-27.79L30.97-27.79L30.97-27.79Q29.67-26.34 27.16-25.09L27.16-25.09L14.13-18.50ZM58.31-39.15L45.29 7.84L45.29 7.84Q44.25 7.99 43.29 8.03L43.29 8.03L43.29 8.03Q42.33 8.07 41.51 8.07L41.51 8.07L41.51 8.07Q38.41 8.07 36.74 6.73L36.74 6.73L36.74 6.73Q35.08 5.40 35.08 2.44L35.08 2.44L35.08 2.44Q35.08 0.44 35.67-1.59L35.67-1.59L35.67-1.59Q36.26-3.63 36.70-5.18L36.70-5.18L49.73-52.17L49.73-52.17Q50.84-52.32 51.80-52.35L51.80-52.35L51.80-52.35Q52.76-52.39 53.58-52.39L53.58-52.39L53.58-52.39Q56.54-52.39 58.27-51.13L58.27-51.13L58.27-51.13Q60.01-49.88 60.01-47.06L60.01-47.06L60.01-47.06Q60.01-44.92 59.42-42.99L59.42-42.99L59.42-42.99Q58.83-41.07 58.31-39.15L58.31-39.15ZM80.96-19.83L62.75-29.30L62.75-29.30Q62.60-29.75 62.57-30.34L62.57-30.34L62.57-30.34Q62.53-30.93 62.53-31.45L62.53-31.45L62.53-31.45Q62.53-32.78 62.83-33.97L62.83-33.97L62.83-33.97Q63.12-35.15 63.79-36.04L63.79-36.04L63.79-36.04Q64.45-36.93 65.53-37.48L65.53-37.48L65.53-37.48Q66.60-38.04 68.23-38.04L68.23-38.04L68.23-38.04Q69.78-38.04 71.30-37.37L71.30-37.37L71.30-37.37Q72.82-36.70 75.04-35.45L75.04-35.45L90.95-26.27L90.95-26.27Q92.87-23.75 92.87-19.61L92.87-19.61L92.87-19.61Q92.87-16.50 91.98-14.80L91.98-14.80L91.98-14.80Q91.09-13.10 89.39-12.14L89.39-12.14L69.04-0.30L69.04-0.30Q65.42-1.26 64.12-2.92L64.12-2.92L64.12-2.92Q62.83-4.59 62.83-6.51L62.83-6.51L62.83-6.51Q62.83-9.10 64.12-10.54L64.12-10.54L64.12-10.54Q65.42-11.99 67.93-13.25L67.93-13.25L80.96-19.83ZM112.48-18.28L112.48-9.25L112.48-9.25Q113.52-8.95 115.14-8.84L115.14-8.84L115.14-8.84Q116.77-8.73 118.25-8.73L118.25-8.73L118.25-8.73Q121.21-8.73 123.17-9.95L123.17-9.95L123.17-9.95Q125.13-11.17 125.13-13.76L125.13-13.76L125.13-13.76Q125.13-16.21 123.51-17.24L123.51-17.24L123.51-17.24Q121.88-18.28 118.55-18.28L118.55-18.28L112.48-18.28ZM112.48-36.04L112.48-27.31L117.88-27.31L117.88-27.31Q121.06-27.31 122.51-28.49L122.51-28.49L122.51-28.49Q123.95-29.67 123.95-31.97L123.95-31.97L123.95-31.97Q123.95-33.97 122.28-35.15L122.28-35.15L122.28-35.15Q120.62-36.33 117.29-36.33L117.29-36.33L117.29-36.33Q116.18-36.33 114.74-36.26L114.74-36.26L114.74-36.26Q113.29-36.19 112.48-36.04L112.48-36.04ZM117.29 1.18L117.29 1.18L117.29 1.18Q116.03 1.18 114.33 1.11L114.33 1.11L114.33 1.11Q112.63 1.04 110.81 0.81L110.81 0.81L110.81 0.81Q109.00 0.59 107.23 0.26L107.23 0.26L107.23 0.26Q105.45-0.07 103.97-0.67L103.97-0.67L103.97-0.67Q99.90-2.22 99.90-6.07L99.90-6.07L99.90-40.63L99.90-40.63Q99.90-42.18 100.75-43.03L100.75-43.03L100.75-43.03Q101.60-43.88 103.08-44.40L103.08-44.40L103.08-44.40Q105.60-45.29 109.37-45.70L109.37-45.70L109.37-45.70Q113.15-46.10 117.14-46.10L117.14-46.10L117.14-46.10Q126.61-46.10 131.72-42.92L131.72-42.92L131.72-42.92Q136.83-39.74 136.83-33.08L136.83-33.08L136.83-33.08Q136.83-29.75 134.90-27.34L134.90-27.34L134.90-27.34Q132.98-24.94 129.72-23.83L129.72-23.83L129.72-23.83Q133.42-22.79 135.90-20.05L135.90-20.05L135.90-20.05Q138.38-17.32 138.38-13.17L138.38-13.17L138.38-13.17Q138.38-5.85 132.94-2.33L132.94-2.33L132.94-2.33Q127.50 1.18 117.29 1.18ZM142.52-5.99L142.52-5.99L142.52-5.99Q142.52-9.10 144.45-11.17L144.45-11.17L144.45-11.17Q146.37-13.25 149.70-13.25L149.70-13.25L149.70-13.25Q153.03-13.25 154.96-11.17L154.96-11.17L154.96-11.17Q156.88-9.10 156.88-5.99L156.88-5.99L156.88-5.99Q156.88-2.89 154.96-0.81L154.96-0.81L154.96-0.81Q153.03 1.26 149.70 1.26L149.70 1.26L149.70 1.26Q146.37 1.26 144.45-0.81L144.45-0.81L144.45-0.81Q142.52-2.89 142.52-5.99ZM203.06-39.37L203.06-16.58L203.06-16.58Q203.06-12.58 201.69-9.29L201.69-9.29L201.69-9.29Q200.32-5.99 197.73-3.66L197.73-3.66L197.73-3.66Q195.14-1.33 191.44-0.07L191.44-0.07L191.44-0.07Q187.74 1.18 183.08 1.18L183.08 1.18L183.08 1.18Q178.41 1.18 174.71-0.07L174.71-0.07L174.71-0.07Q171.01-1.33 168.42-3.66L168.42-3.66L168.42-3.66Q165.83-5.99 164.47-9.29L164.47-9.29L164.47-9.29Q163.10-12.58 163.10-16.58L163.10-16.58L163.10-44.84L163.10-44.84Q163.91-44.99 165.69-45.25L165.69-45.25L165.69-45.25Q167.46-45.51 169.09-45.51L169.09-45.51L169.09-45.51Q170.79-45.51 172.09-45.25L172.09-45.25L172.09-45.25Q173.38-44.99 174.27-44.33L174.27-44.33L174.27-44.33Q175.16-43.66 175.60-42.48L175.60-42.48L175.60-42.48Q176.05-41.29 176.05-39.37L176.05-39.37L176.05-16.80L176.05-16.80Q176.05-13.25 178.01-11.25L178.01-11.25L178.01-11.25Q179.97-9.25 183.08-9.25L183.08-9.25L183.08-9.25Q186.26-9.25 188.18-11.25L188.18-11.25L188.18-11.25Q190.11-13.25 190.11-16.80L190.11-16.80L190.11-44.84L190.11-44.84Q190.92-44.99 192.70-45.25L192.70-45.25L192.70-45.25Q194.47-45.51 196.10-45.51L196.10-45.51L196.10-45.51Q197.80-45.51 199.10-45.25L199.10-45.25L199.10-45.25Q200.39-44.99 201.28-44.33L201.28-44.33L201.28-44.33Q202.17-43.66 202.61-42.48L202.61-42.48L202.61-42.48Q203.06-41.29 203.06-39.37L203.06-39.37ZM227.99-37.07L227.99-37.07L227.99-37.07Q232.43-37.07 236.25-35.93L236.25-35.93L236.25-35.93Q240.06-34.78 242.79-32.41L242.79-32.41L242.79-32.41Q245.53-30.04 247.09-26.45L247.09-26.45L247.09-26.45Q248.64-22.87 248.64-17.91L248.64-17.91L248.64-17.91Q248.64-13.17 247.31-9.62L247.31-9.62L247.31-9.62Q245.98-6.07 243.53-3.66L243.53-3.66L243.53-3.66Q241.09-1.26 237.65-0.07L237.65-0.07L237.65-0.07Q234.21 1.11 229.99 1.11L229.99 1.11L229.99 1.11Q226.81 1.11 224.07 0.15L224.07 0.15L224.07 12.43L224.07 12.43Q223.33 12.65 221.70 12.91L221.70 12.91L221.70 12.91Q220.08 13.17 218.37 13.17L218.37 13.17L218.37 13.17Q216.75 13.17 215.45 12.95L215.45 12.95L215.45 12.95Q214.16 12.73 213.27 12.06L213.27 12.06L213.27 12.06Q212.38 11.40 211.94 10.25L211.94 10.25L211.94 10.25Q211.49 9.10 211.49 7.25L211.49 7.25L211.49-28.27L211.49-28.27Q211.49-30.27 212.34-31.52L212.34-31.52L212.34-31.52Q213.19-32.78 214.67-33.82L214.67-33.82L214.67-33.82Q216.97-35.30 220.37-36.19L220.37-36.19L220.37-36.19Q223.78-37.07 227.99-37.07ZM228.14-8.81L228.14-8.81L228.14-8.81Q235.76-8.81 235.76-17.91L235.76-17.91L235.76-17.91Q235.76-22.64 233.88-24.94L233.88-24.94L233.88-24.94Q231.99-27.23 228.44-27.23L228.44-27.23L228.44-27.23Q227.03-27.23 225.92-26.90L225.92-26.90L225.92-26.90Q224.81-26.57 224.00-26.12L224.00-26.12L224.00-9.84L224.00-9.84Q224.89-9.40 225.92-9.10L225.92-9.10L225.92-9.10Q226.96-8.81 228.14-8.81ZM253.23-17.98L253.23-17.98L253.23-17.98Q253.23-22.87 254.71-26.45L254.71-26.45L254.71-26.45Q256.19-30.04 258.81-32.41L258.81-32.41L258.81-32.41Q261.44-34.78 264.96-35.93L264.96-35.93L264.96-35.93Q268.47-37.07 272.54-37.07L272.54-37.07L272.54-37.07Q274.02-37.07 275.43-36.81L275.43-36.81L275.43-36.81Q276.83-36.56 277.72-36.19L277.72-36.19L277.72-48.17L277.72-48.17Q278.46-48.40 280.09-48.66L280.09-48.66L280.09-48.66Q281.72-48.91 283.42-48.91L283.42-48.91L283.42-48.91Q285.05-48.91 286.34-48.69L286.34-48.69L286.34-48.69Q287.64-48.47 288.53-47.80L288.53-47.80L288.53-47.80Q289.41-47.14 289.86-45.99L289.86-45.99L289.86-45.99Q290.30-44.84 290.30-42.99L290.30-42.99L290.30-7.92L290.30-7.92Q290.30-4.44 287.05-2.37L287.05-2.37L287.05-2.37Q284.90-0.96 281.50 0.11L281.50 0.11L281.50 0.11Q278.09 1.18 273.65 1.18L273.65 1.18L273.65 1.18Q268.84 1.18 265.03-0.15L265.03-0.15L265.03-0.15Q261.22-1.48 258.59-4.00L258.59-4.00L258.59-4.00Q255.97-6.51 254.60-10.03L254.60-10.03L254.60-10.03Q253.23-13.54 253.23-17.98ZM274.24-27.23L274.24-27.23L274.24-27.23Q270.25-27.23 268.10-24.94L268.10-24.94L268.10-24.94Q265.96-22.64 265.96-17.98L265.96-17.98L265.96-17.98Q265.96-13.39 267.95-11.06L267.95-11.06L267.95-11.06Q269.95-8.73 273.73-8.73L273.73-8.73L273.73-8.73Q275.06-8.73 276.13-9.14L276.13-9.14L276.13-9.14Q277.20-9.55 277.80-10.06L277.80-10.06L277.80-26.34L277.80-26.34Q276.32-27.23 274.24-27.23ZM313.54-7.99L313.54-7.99L313.54-7.99Q314.80-7.99 316.31-8.25L316.31-8.25L316.31-8.25Q317.83-8.51 318.57-8.95L318.57-8.95L318.57-14.87L313.24-14.43L313.24-14.43Q311.17-14.28 309.84-13.54L309.84-13.54L309.84-13.54Q308.51-12.80 308.51-11.32L308.51-11.32L308.51-11.32Q308.51-9.84 309.65-8.92L309.65-8.92L309.65-8.92Q310.80-7.99 313.54-7.99ZM312.95-37.07L312.95-37.07L312.95-37.07Q316.94-37.07 320.24-36.26L320.24-36.26L320.24-36.26Q323.53-35.45 325.86-33.78L325.86-33.78L325.86-33.78Q328.19-32.12 329.45-29.56L329.45-29.56L329.45-29.56Q330.71-27.01 330.71-23.53L330.71-23.53L330.71-6.96L330.71-6.96Q330.71-5.03 329.63-3.81L329.63-3.81L329.63-3.81Q328.56-2.59 327.08-1.70L327.08-1.70L327.08-1.70Q322.27 1.18 313.54 1.18L313.54 1.18L313.54 1.18Q309.62 1.18 306.47 0.44L306.47 0.44L306.47 0.44Q303.33-0.30 301.07-1.78L301.07-1.78L301.07-1.78Q298.81-3.26 297.59-5.55L297.59-5.55L297.59-5.55Q296.37-7.84 296.37-10.88L296.37-10.88L296.37-10.88Q296.37-15.98 299.40-18.72L299.40-18.72L299.40-18.72Q302.44-21.46 308.80-22.13L308.80-22.13L318.50-23.16L318.50-23.68L318.50-23.68Q318.50-25.83 316.61-26.75L316.61-26.75L316.61-26.75Q314.72-27.68 311.17-27.68L311.17-27.68L311.17-27.68Q308.36-27.68 305.69-27.08L305.69-27.08L305.69-27.08Q303.03-26.49 300.88-25.60L300.88-25.60L300.88-25.60Q299.92-26.27 299.26-27.64L299.26-27.64L299.26-27.64Q298.59-29.01 298.59-30.49L298.59-30.49L298.59-30.49Q298.59-32.41 299.51-33.56L299.51-33.56L299.51-33.56Q300.44-34.71 302.36-35.52L302.36-35.52L302.36-35.52Q304.51-36.33 307.43-36.70L307.43-36.70L307.43-36.70Q310.36-37.07 312.95-37.07ZM350.98-23.53L350.98-12.36L350.98-12.36Q350.98-10.43 352.20-9.62L352.20-9.62L352.20-9.62Q353.42-8.81 355.64-8.81L355.64-8.81L355.64-8.81Q356.75-8.81 357.94-8.99L357.94-8.99L357.94-8.99Q359.12-9.18 360.01-9.47L360.01-9.47L360.01-9.47Q360.68-8.66 361.16-7.66L361.16-7.66L361.16-7.66Q361.64-6.66 361.64-5.25L361.64-5.25L361.64-5.25Q361.64-2.44 359.53-0.67L359.53-0.67L359.53-0.67Q357.42 1.11 352.09 1.11L352.09 1.11L352.09 1.11Q345.58 1.11 342.06-1.85L342.06-1.85L342.06-1.85Q338.55-4.81 338.55-11.47L338.55-11.47L338.55-43.14L338.55-43.14Q339.36-43.36 340.88-43.62L340.88-43.62L340.88-43.62Q342.40-43.88 344.10-43.88L344.10-43.88L344.10-43.88Q347.36-43.88 349.17-42.73L349.17-42.73L349.17-42.73Q350.98-41.59 350.98-37.89L350.98-37.89L350.98-33.15L360.68-33.15L360.68-33.15Q361.12-32.34 361.53-31.12L361.53-31.12L361.53-31.12Q361.93-29.90 361.93-28.42L361.93-28.42L361.93-28.42Q361.93-25.83 360.79-24.68L360.79-24.68L360.79-24.68Q359.64-23.53 357.72-23.53L357.72-23.53L350.98-23.53ZM387.02 1.18L387.02 1.18L387.02 1.18Q382.65 1.18 378.92-0.04L378.92-0.04L378.92-0.04Q375.18-1.26 372.40-3.70L372.40-3.70L372.40-3.70Q369.63-6.14 368.04-9.84L368.04-9.84L368.04-9.84Q366.45-13.54 366.45-18.50L366.45-18.50L366.45-18.50Q366.45-23.38 368.04-26.90L368.04-26.90L368.04-26.90Q369.63-30.41 372.22-32.67L372.22-32.67L372.22-32.67Q374.81-34.93 378.14-36.00L378.14-36.00L378.14-36.00Q381.47-37.07 384.95-37.07L384.95-37.07L384.95-37.07Q388.87-37.07 392.09-35.89L392.09-35.89L392.09-35.89Q395.31-34.71 397.64-32.63L397.64-32.63L397.64-32.63Q399.97-30.56 401.26-27.68L401.26-27.68L401.26-27.68Q402.56-24.79 402.56-21.39L402.56-21.39L402.56-21.39Q402.56-18.87 401.15-17.54L401.15-17.54L401.15-17.54Q399.75-16.21 397.23-15.84L397.23-15.84L378.95-13.10L378.95-13.10Q379.77-10.66 382.28-9.43L382.28-9.43L382.28-9.43Q384.80-8.21 388.06-8.21L388.06-8.21L388.06-8.21Q391.09-8.21 393.79-8.99L393.79-8.99L393.79-8.99Q396.49-9.77 398.19-10.80L398.19-10.80L398.19-10.80Q399.38-10.06 400.19-8.73L400.19-8.73L400.19-8.73Q401.01-7.40 401.01-5.92L401.01-5.92L401.01-5.92Q401.01-2.59 397.90-0.96L397.90-0.96L397.90-0.96Q395.53 0.30 392.57 0.74L392.57 0.74L392.57 0.74Q389.61 1.18 387.02 1.18ZM384.95-27.90L384.95-27.90L384.95-27.90Q383.17-27.90 381.88-27.31L381.88-27.31L381.88-27.31Q380.58-26.71 379.77-25.79L379.77-25.79L379.77-25.79Q378.95-24.86 378.55-23.72L378.55-23.72L378.55-23.72Q378.14-22.57 378.07-21.39L378.07-21.39L390.72-23.46L390.72-23.46Q390.50-24.94 389.09-26.42L389.09-26.42L389.09-26.42Q387.69-27.90 384.95-27.90ZM407.07-17.98L407.07-17.98L407.07-17.98Q407.07-22.87 408.55-26.45L408.55-26.45L408.55-26.45Q410.03-30.04 412.66-32.41L412.66-32.41L412.66-32.41Q415.29-34.78 418.80-35.93L418.80-35.93L418.80-35.93Q422.32-37.07 426.39-37.07L426.39-37.07L426.39-37.07Q427.87-37.07 429.27-36.81L429.27-36.81L429.27-36.81Q430.68-36.56 431.57-36.19L431.57-36.19L431.57-48.17L431.57-48.17Q432.31-48.40 433.94-48.66L433.94-48.66L433.94-48.66Q435.56-48.91 437.27-48.91L437.27-48.91L437.27-48.91Q438.89-48.91 440.19-48.69L440.19-48.69L440.19-48.69Q441.48-48.47 442.37-47.80L442.37-47.80L442.37-47.80Q443.26-47.14 443.70-45.99L443.70-45.99L443.70-45.99Q444.15-44.84 444.15-42.99L444.15-42.99L444.15-7.92L444.15-7.92Q444.15-4.44 440.89-2.37L440.89-2.37L440.89-2.37Q438.75-0.96 435.34 0.11L435.34 0.11L435.34 0.11Q431.94 1.18 427.50 1.18L427.50 1.18L427.50 1.18Q422.69 1.18 418.88-0.15L418.88-0.15L418.88-0.15Q415.07-1.48 412.44-4.00L412.44-4.00L412.44-4.00Q409.81-6.51 408.44-10.03L408.44-10.03L408.44-10.03Q407.07-13.54 407.07-17.98ZM428.09-27.23L428.09-27.23L428.09-27.23Q424.09-27.23 421.95-24.94L421.95-24.94L421.95-24.94Q419.80-22.64 419.80-17.98L419.80-17.98L419.80-17.98Q419.80-13.39 421.80-11.06L421.80-11.06L421.80-11.06Q423.80-8.73 427.57-8.73L427.57-8.73L427.57-8.73Q428.90-8.73 429.98-9.14L429.98-9.14L429.98-9.14Q431.05-9.55 431.64-10.06L431.64-10.06L431.64-26.34L431.64-26.34Q430.16-27.23 428.09-27.23Z" fill="#ffffff"></path></g></g><style>text {
  font-size: 64px;
  font-family: Arial Black;
  dominant-baseline: central;
  text-anchor: middle;
}</style></svg>