<svg width="35" height="35" id="e1J6PfcTOyr1" xmlns="http://www.w3.org/2000/svg" xmlns:xlink="http://www.w3.org/1999/xlink" viewBox="15 80 150 150" shape-rendering="geometricPrecision" text-rendering="geometricPrecision"><defs><linearGradient id="e1J6PfcTOyr2-fill" x1="0.946202" y1="1" x2="0.174077" y2="0" spreadMethod="pad" gradientUnits="objectBoundingBox" gradientTransform="translate(0 0)"><stop id="e1J6PfcTOyr2-fill-0" offset="0%" stop-color="#093b8e"/><stop id="e1J6PfcTOyr2-fill-1" offset="100%" stop-color="#71f6b8"/></linearGradient></defs><path d="M-87.148607,-8.455155c-1.312155-80.041398-24.312583-34.269319,59.337238-33.879212s42.614982-51.410802,42.349012,33.879212s36.771339,58.242437-50.814945,59.288622-49.559151,26.001392-50.871305-59.288622Z" transform="matrix(1.18067 0 0 1.18067 134.298665 154.370998)" fill="url(#e1J6PfcTOyr2-fill)" stroke-width="0"/><path d="M98.89155,123.665974c0,0-38.866146,19.428398,19.422346-19.428378c58.274689,38.856776,19.413472,19.428378,19.413472,19.428378s38.835815,67.999359,38.835815,67.999359-42.740363,0-42.740363,0s0-25.356777,0-38.856776c-15.534326-38.856763-15.534326-38.856766-31.068652,0c34.973202,0,0,38.856776,0,38.856776q-42.754166,0-42.754166,0c0,0,38.891548-67.999359,38.891548-67.999359Z" transform="matrix(1.02998 0 0 1.02942-31.856 2.69563)" fill="#fff" stroke-width="0"/></svg>
