<svg width="620.1467407226562px" height="137.1199981689453px" xmlns="http://www.w3.org/2000/svg" viewBox="-60.0733703613281 6.440000915527349 620.1467407226562 137.1199981689453" style="background: rgba(0, 0, 0, 0);" preserveAspectRatio="xMidYMid"><defs><filter id="editing-extrusion" x="-100%" y="-100%" width="300%" height="300%"><feFlood result="color1" flood-color="#444444"></feFlood><feConvolveMatrix order="8,8" divisor="1" kernelMatrix="1 0 0 0 0 0 0 0 0 1 0 0 0 0 0 0 0 0 1 0 0 0 0 0 0 0 0 1 0 0 0 0 0 0 0 0 1 0 0 0 0 0 0 0 0 1 0 0 0 0 0 0 0 0 1 0 0 0 0 0 0 0 0 1" in="SourceAlpha" result="extrude"></feConvolveMatrix><feComposite in="color1" in2="extrude" result="comp-extrude" operator="in"></feComposite><feOffset dx="4" dy="4" in="comp-extrude" result="offset-extrude"></feOffset><feMerge><feMergeNode in="offset-extrude"></feMergeNode><feMergeNode in="SourceGraphic"></feMergeNode></feMerge></filter></defs><g filter="url(#editing-extrusion)"><g transform="translate(30.633951663970947, 109.04000473022461)"><path d="M-1.48-3.03L-1.48-3.03L3.40-7.84L12.14-16.95L7.25-23.53L7.25-23.53Q6.14-24.94 5.25-26.12L5.25-26.12L5.25-26.12Q4.37-27.31 4.37-28.49L4.37-28.49L4.37-28.49Q4.37-29.67 4.74-30.71L4.74-30.71L4.74-30.71Q5.11-31.75 5.92-32.56L5.92-32.56L5.92-32.56Q7.62-34.41 10.58-34.56L10.58-34.56L22.20-17.91L7.55-2.81L7.55-2.81Q5.18-0.44 2.22-0.44L2.22-0.44L2.22-0.44Q1.11-0.44 0.04-1.11L0.04-1.11L0.04-1.11Q-1.04-1.78-1.48-3.03ZM23.83-3.03L23.83-3.03L28.71-7.84L37.44-16.95L32.56-23.53L32.56-23.53Q31.45-24.94 30.56-26.12L30.56-26.12L30.56-26.12Q29.67-27.31 29.67-28.49L29.67-28.49L29.67-28.49Q29.67-29.67 30.04-30.71L30.04-30.71L30.04-30.71Q30.41-31.75 31.23-32.56L31.23-32.56L31.23-32.56Q32.93-34.41 35.89-34.56L35.89-34.56L47.51-17.91L32.86-2.81L32.86-2.81Q30.49-0.44 27.53-0.44L27.53-0.44L27.53-0.44Q26.42-0.44 25.34-1.11L25.34-1.11L25.34-1.11Q24.27-1.78 23.83-3.03ZM53.28-10.95L53.28-10.95L53.28-10.95Q53.28-13.84 54.02-17.54L54.02-17.54L60.01-48.84L76.37-48.84L70.45-17.32L70.45-17.32Q69.78-13.84 69.78-11.29L69.78-11.29L69.78-11.29Q69.78-8.73 70.86-7.40L70.86-7.40L70.86-7.40Q71.93-6.07 73.93-6.07L73.93-6.07L73.93-6.07Q75.92-6.07 77.18-6.59L77.18-6.59L77.18-6.59Q78.44-7.10 79.48-8.36L79.48-8.36L79.48-8.36Q81.47-10.88 82.73-17.32L82.73-17.32L88.73-48.84L99.90-48.84L93.98-17.39L93.98-17.39Q91.91-6.88 86.21-2.66L86.21-2.66L86.21-2.66Q80.66 1.48 69.71 1.48L69.71 1.48L69.71 1.48Q61.49 1.48 57.13-2.07L57.13-2.07L57.13-2.07Q53.28-5.18 53.28-10.95ZM135.86-5.07L135.86-5.07L135.86-5.07Q132.76-1.92 128.50-0.22L128.50-0.22L128.50-0.22Q124.25 1.48 120.03 1.48L120.03 1.48L120.03 1.48Q115.81 1.48 114.33 0.74L114.33 0.74L112.04 13.32L97.01 14.80L107.23-37.74L119.29-39.00L118.33-33.89L118.33-33.89Q121.43-39.15 127.87-39.15L127.87-39.15L127.87-39.15Q135.12-39.15 138.97-34.48L138.97-34.48L138.97-34.48Q142.38-30.27 142.38-23.83L142.38-23.83L142.38-23.83Q142.38-17.39 140.67-12.80L140.67-12.80L140.67-12.80Q138.97-8.21 135.86-5.07ZM119.14-25.83L115.22-4.14L115.22-4.14Q116.77-2.81 118.70-2.81L118.70-2.81L118.70-2.81Q120.62-2.81 121.73-3.55L121.73-3.55L121.73-3.55Q122.84-4.29 123.65-5.77L123.65-5.77L123.65-5.77Q125.87-9.77 127.65-21.90L127.65-21.90L127.65-21.90Q128.17-25.46 128.17-28.93L128.17-28.93L128.17-28.93Q128.17-32.41 127.39-33.52L127.39-33.52L127.39-33.52Q126.61-34.63 125.13-34.63L125.13-34.63L125.13-34.63Q120.62-34.63 119.14-25.83L119.14-25.83ZM170.13-39.22L170.13-39.22L170.13-39.22Q172.79-39.22 174.86-38.63L174.86-38.63L174.86-38.63Q174.94-38.92 175.08-39.74L175.08-39.74L175.45-42.03L175.45-42.03Q175.75-43.51 176.19-45.95L176.19-45.95L177.38-51.80L192.10-53.28L183.89-10.36L183.89-10.36Q183.82-9.92 183.82-9.18L183.82-9.18L183.82-7.99L183.82-7.99Q183.82-6.36 184.63-5.14L184.63-5.14L184.63-5.14Q185.44-3.92 186.78-3.92L186.78-3.92L186.78-3.92Q185.30-0.44 180.78 1.04L180.78 1.04L180.78 1.04Q179.23 1.48 177.04 1.48L177.04 1.48L177.04 1.48Q174.86 1.48 172.86 0.33L172.86 0.33L172.86 0.33Q170.87-0.81 170.27-2.74L170.27-2.74L170.27-2.74Q169.09-0.81 166.72 0.33L166.72 0.33L166.72 0.33Q164.35 1.48 160.91 1.48L160.91 1.48L160.91 1.48Q157.47 1.48 154.62 0.59L154.62 0.59L154.62 0.59Q151.77-0.30 150.00-2.22L150.00-2.22L150.00-2.22Q146.74-5.99 146.74-14.58L146.74-14.58L146.74-14.58Q146.74-25.68 153.25-32.41L153.25-32.41L153.25-32.41Q159.77-39.22 170.13-39.22ZM169.61-34.78L169.61-34.78L169.61-34.78Q166.87-34.78 165.39-31.82L165.39-31.82L165.39-31.82Q163.91-28.86 162.39-21.53L162.39-21.53L162.39-21.53Q160.88-14.21 160.88-7.62L160.88-7.62L160.88-7.62Q160.88-3.11 163.54-3.11L163.54-3.11L163.54-3.11Q165.91-3.11 167.57-5.48L167.57-5.48L167.57-5.48Q169.24-7.84 169.90-11.77L169.90-11.77L173.90-33.45L173.90-33.45Q172.35-34.78 169.61-34.78ZM196.28-2.22L196.28-2.22L196.28-2.22Q194.55-4.14 193.77-7.18L193.77-7.18L193.77-7.18Q192.99-10.21 192.99-15.17L192.99-15.17L192.99-15.17Q192.99-20.13 194.69-24.64L194.69-24.64L194.69-24.64Q196.40-29.16 199.50-32.41L199.50-32.41L199.50-32.41Q205.87-39.22 216.38-39.22L216.38-39.22L216.38-39.22Q220.15-39.22 222.89-37.96L222.89-37.96L235.54-39.22L230.07-10.36L230.07-10.36Q229.84-9.47 229.84-7.84L229.84-7.84L229.84-7.84Q229.84-6.22 230.84-5.18L230.84-5.18L230.84-5.18Q231.84-4.14 233.32-4.00L233.32-4.00L233.32-4.00Q232.58-1.48 229.88 0L229.88 0L229.88 0Q227.18 1.48 224.15 1.48L224.15 1.48L224.15 1.48Q221.11 1.48 219.08 0.33L219.08 0.33L219.08 0.33Q217.04-0.81 216.45-2.74L216.45-2.74L216.45-2.74Q215.27-0.89 212.75 0.30L212.75 0.30L212.75 0.30Q210.23 1.48 206.87 1.48L206.87 1.48L206.87 1.48Q203.50 1.48 200.76 0.59L200.76 0.59L200.76 0.59Q198.02-0.30 196.28-2.22ZM211.90-32.26L211.90-32.26L211.90-32.26Q211.05-30.93 210.31-28.67L210.31-28.67L210.31-28.67Q209.57-26.42 208.35-20.39L208.35-20.39L208.35-20.39Q207.13-14.36 207.13-10.06L207.13-10.06L207.13-10.06Q207.13-5.77 207.79-4.51L207.79-4.51L207.79-4.51Q208.46-3.26 209.64-3.26L209.64-3.26L209.64-3.26Q212.01-3.26 213.75-5.51L213.75-5.51L213.75-5.51Q215.49-7.77 216.15-11.77L216.15-11.77L220.08-33.45L220.08-33.45Q218.52-34.78 216.71-34.78L216.71-34.78L216.71-34.78Q214.90-34.78 213.82-34.19L213.82-34.19L213.82-34.19Q212.75-33.60 211.90-32.26ZM240.72-7.40L240.72-7.40L240.72-7.40Q240.72-9.40 241.76-14.43L241.76-14.43L245.68-34.41L241.31-34.41L241.61-36.63L241.61-36.63Q250.49-39.29 259.07-45.81L259.07-45.81L262.63-45.81L260.85-37.74L266.62-37.74L265.96-34.41L260.26-34.41L256.48-14.43L256.48-14.43Q255.52-9.84 255.52-8.29L255.52-8.29L255.52-8.29Q255.52-4.74 258.63-4.00L258.63-4.00L258.63-4.00Q257.89-1.48 255.23 0L255.23 0L255.23 0Q252.56 1.48 248.79 1.48L248.79 1.48L248.79 1.48Q245.01 1.48 242.87-0.89L242.87-0.89L242.87-0.89Q240.72-3.26 240.72-7.40ZM295.93-12.51L295.93-12.51L295.93-12.51Q297.78-11.25 297.78-8.47L297.78-8.47L297.78-8.47Q297.78-5.70 296.37-3.92L296.37-3.92L296.37-3.92Q294.96-2.15 292.67-0.96L292.67-0.96L292.67-0.96Q287.93 1.48 282.83 1.48L282.83 1.48L282.83 1.48Q277.72 1.48 274.72 0.37L274.72 0.37L274.72 0.37Q271.73-0.74 269.73-2.81L269.73-2.81L269.73-2.81Q265.81-6.73 265.81-13.91L265.81-13.91L265.81-13.91Q265.81-25.09 271.88-31.89L271.88-31.89L271.88-31.89Q278.39-39.22 289.71-39.22L289.71-39.22L289.71-39.22Q296.74-39.22 300.22-36.26L300.22-36.26L300.22-36.26Q302.81-34.04 302.81-30.41L302.81-30.41L302.81-30.41Q302.81-17.39 280.31-17.39L280.31-17.39L280.31-17.39Q280.02-15.47 280.02-13.84L280.02-13.84L280.02-13.84Q280.02-10.43 281.53-9.14L281.53-9.14L281.53-9.14Q283.05-7.84 285.86-7.84L285.86-7.84L285.86-7.84Q288.67-7.84 291.67-9.14L291.67-9.14L291.67-9.14Q294.67-10.43 295.93-12.51ZM280.83-20.57L280.83-20.57L280.83-20.57Q286.08-20.57 289.12-23.83L289.12-23.83L289.12-23.83Q292.15-26.94 292.15-31.89L292.15-31.89L292.15-31.89Q292.15-33.60 291.52-34.52L291.52-34.52L291.52-34.52Q290.89-35.45 289.64-35.45L289.64-35.45L289.64-35.45Q288.38-35.45 287.30-34.96L287.30-34.96L287.30-34.96Q286.23-34.48 285.12-32.86L285.12-32.86L285.12-32.86Q282.38-29.16 280.83-20.57ZM342.40-19.46L342.40-19.46L342.40-19.46Q343.21-17.91 343.21-14.87L343.21-14.87L343.21-14.87Q343.21-11.84 340.95-9.73L340.95-9.73L340.95-9.73Q338.70-7.62 333.74-7.62L333.74-7.62L333.30-7.62L332.11 0L332.11 0Q330.11 1.48 326.56 1.48L326.56 1.48L326.56 1.48Q321.97 1.48 320.49-1.33L320.49-1.33L320.49-1.33Q319.90-2.37 319.90-3.26L319.90-3.26L319.90-3.26Q319.90-4.29 320.05-5.48L320.05-5.48L320.57-8.29L303.55-10.06L303.55-19.39L331.22-50.39L331.22-50.32L331.30-50.39L341.58-49.28L341.58-49.28Q338.11-35.08 335.15-18.72L335.15-18.72L336.85-18.72L336.85-18.72Q341.07-18.72 342.40-19.46ZM327.52-37.96L311.47-19.24L322.64-18.87L322.64-18.87Q325.08-29.75 327.52-37.96L327.52-37.96ZM379.32 1.48L379.32 1.48L379.32 1.48Q369.85 1.48 368.96-11.99L368.96-11.99L356.24-11.99L356.24-11.99Q354.76-8.58 353.72-5.62L353.72-5.62L351.80 0L341.44 0L364.75-48.84L380.66-48.84L383.76-12.88L383.76-12.88Q384.50-5.11 387.46-2.81L387.46-2.81L387.46-2.81Q385.32 1.48 379.32 1.48ZM362.60-26.79L358.53-17.39L368.74-17.39L367.85-36.41L367.85-38.41L362.60-26.79ZM409.44-4.07L409.44-4.07L409.44-4.07Q407.15 1.48 399.82 1.48L399.82 1.48L399.82 1.48Q396.12 1.48 393.75-1.11L393.75-1.11L393.75-1.11Q391.83-3.26 391.83-5.70L391.83-5.70L391.83-5.70Q391.83-11.25 394.42-23.38L394.42-23.38L399.82-51.80L414.84-53.28L407.67-15.84L407.67-15.84Q406.41-10.36 406.41-8.44L406.41-8.44L406.41-8.44Q406.41-4.22 409.44-4.07ZM433.42-4.07L433.42-4.07L433.42-4.07Q431.12 1.48 423.80 1.48L423.80 1.48L423.80 1.48Q420.10 1.48 417.73-1.11L417.73-1.11L417.73-1.11Q415.81-3.26 415.81-5.70L415.81-5.70L415.81-5.70Q415.81-11.25 418.40-23.38L418.40-23.38L423.80-51.80L438.82-53.28L431.64-15.84L431.64-15.84Q430.38-10.36 430.38-8.44L430.38-8.44L430.38-8.44Q430.38-4.22 433.42-4.07Z" fill="#ffffff"></path></g></g><style>text {
  font-size: 64px;
  font-family: Arial Black;
  dominant-baseline: central;
  text-anchor: middle;
}</style></svg>